<svg width="448" height="90" viewBox="0 0 448 90" fill="none" xmlns="http://www.w3.org/2000/svg">
<rect x="0.5" width="22.5" height="22.5" fill="#2A4840"/>
<rect x="23" width="22.5" height="22.5" fill="#2A4840"/>
<rect x="45.5" width="22.5" height="22.5" fill="#2A4840"/>
<rect x="68" width="22.5" height="22.5" fill="#2A4840"/>
<rect x="68" y="22.5" width="22.5" height="22.5" fill="#2A4840"/>
<rect x="68" y="45" width="22.5" height="22.5" fill="#2A4840"/>
<rect x="68" y="67.5" width="22.5" height="22.5" fill="#2A4840"/>
<rect x="23" y="45" width="22.5" height="22.5" fill="#2A4840"/>
<rect x="0.5" y="67.5" width="22.5" height="22.5" fill="#2A4840"/>
<path d="M387.5 90V0H416.185C434.473 0 444.744 8.87143 444.744 24.4286C444.744 34.4571 439.984 43.2 429.087 46.0286V47.0571C436.352 48.9857 439.108 54.5143 440.986 64.0286L444.243 80.2286C444.995 84.0857 445.997 87.5571 447.5 90H435.224C433.847 87.6857 432.844 84.0857 432.218 80.4857L429.713 66.7286C427.583 54.7714 424.076 51.3 412.928 51.4286L399.525 51.5571V90H387.5ZM414.682 41.1429C427.458 41.1429 432.719 35.3571 432.719 26.4857C432.719 16.3286 427.709 11.0571 414.807 11.0571H399.525V41.1429H414.682Z" fill="#2A4840"/>
<path d="M323.5 90V0H377.247V11.0571H335.527V38.1857H364.218V49.2429H335.527V78.9429H378.5V90H323.5Z" fill="#2A4840"/>
<path d="M282.744 90C262.744 90 249.619 75.25 249.619 45C249.619 14.75 262.744 0 282.994 0C300.244 0 311.119 11 312.744 28.375H300.369C298.619 18.5 293.244 10.75 282.994 10.75C267.119 10.75 261.869 24.125 261.869 45C261.869 65.875 267.369 79.25 282.744 79.25C295.619 79.25 301.369 70 302.619 52.75H279.119V42H314.744V45C314.744 76.125 302.244 90 282.744 90Z" fill="#2A4840"/>
<path d="M216.496 13.5H215.504L204.957 52.5857H227.043L216.496 13.5ZM182.5 90L207.935 0H224.065L249.5 90H237.217L230.02 63.6429H201.98L194.783 90H182.5Z" fill="#2A4840"/>
<path d="M132.5 90V0H161.186C179.317 0 189.5 9.64286 189.5 27.1286C189.5 44.6143 178.82 54.2571 160.938 54.2571H144.422V90H132.5ZM159.944 43.2C172.363 43.2 177.578 37.9286 177.578 27.1286C177.578 18.3857 172.611 11.0571 160.069 11.0571H144.422V43.2H159.944Z" fill="#2A4840"/>
</svg>
